<mxfile host="app.diagrams.net" agent="Mozilla/5.0 (Windows NT 10.0; Win64; x64) AppleWebKit/537.36 (KHTML, like Gecko) Chrome/128.0.0.0 Safari/537.36 OPR/114.0.0.0 (Edition Yx GX)" version="26.0.3">
  <diagram id="C5RBs43oDa-KdzZeNtuy" name="Page-1">
    <mxGraphModel dx="2466" dy="899" grid="1" gridSize="10" guides="1" tooltips="1" connect="1" arrows="1" fold="1" page="1" pageScale="1" pageWidth="827" pageHeight="1169" math="0" shadow="0">
      <root>
        <mxCell id="WIyWlLk6GJQsqaUBKTNV-0" />
        <mxCell id="WIyWlLk6GJQsqaUBKTNV-1" parent="WIyWlLk6GJQsqaUBKTNV-0" />
        <mxCell id="EWCVs1CCw9TfIOl8WnOv-2" style="edgeStyle=orthogonalEdgeStyle;rounded=0;orthogonalLoop=1;jettySize=auto;html=1;exitX=0.5;exitY=1;exitDx=0;exitDy=0;entryX=0.5;entryY=0;entryDx=0;entryDy=0;" edge="1" parent="WIyWlLk6GJQsqaUBKTNV-1" source="EWCVs1CCw9TfIOl8WnOv-0" target="EWCVs1CCw9TfIOl8WnOv-1">
          <mxGeometry relative="1" as="geometry" />
        </mxCell>
        <mxCell id="EWCVs1CCw9TfIOl8WnOv-0" value="Начало" style="ellipse;whiteSpace=wrap;html=1;" vertex="1" parent="WIyWlLk6GJQsqaUBKTNV-1">
          <mxGeometry x="354" y="80" width="120" height="80" as="geometry" />
        </mxCell>
        <mxCell id="EWCVs1CCw9TfIOl8WnOv-1" value="&lt;span style=&quot;font-size: 12.3429px; text-align: left; white-space: pre;&quot;&gt;&lt;font face=&quot;Helvetica&quot; style=&quot;color: rgb(0, 0, 0);&quot;&gt;Создать список &lt;/font&gt;&lt;/span&gt;&lt;div&gt;&lt;span style=&quot;font-size: 12.3429px; text-align: left; white-space: pre;&quot;&gt;&lt;font face=&quot;Helvetica&quot; style=&quot;color: rgb(0, 0, 0);&quot;&gt;пользователей&lt;/font&gt;&lt;/span&gt;&lt;/div&gt;" style="shape=parallelogram;perimeter=parallelogramPerimeter;whiteSpace=wrap;html=1;fixedSize=1;" vertex="1" parent="WIyWlLk6GJQsqaUBKTNV-1">
          <mxGeometry x="354" y="220" width="120" height="60" as="geometry" />
        </mxCell>
        <mxCell id="EWCVs1CCw9TfIOl8WnOv-14" style="edgeStyle=orthogonalEdgeStyle;rounded=0;orthogonalLoop=1;jettySize=auto;html=1;exitX=0.5;exitY=1;exitDx=0;exitDy=0;entryX=0.5;entryY=0;entryDx=0;entryDy=0;" edge="1" parent="WIyWlLk6GJQsqaUBKTNV-1" source="EWCVs1CCw9TfIOl8WnOv-3" target="EWCVs1CCw9TfIOl8WnOv-13">
          <mxGeometry relative="1" as="geometry" />
        </mxCell>
        <mxCell id="EWCVs1CCw9TfIOl8WnOv-3" value="&lt;span style=&quot;font-size: 12.3429px; text-align: left; white-space: pre; background-color: light-dark(#ffffff, var(--ge-dark-color, #121212));&quot;&gt;&lt;font face=&quot;Helvetica&quot; style=&quot;color: rgb(0, 0, 0);&quot;&gt;Вывести &lt;/font&gt;&lt;/span&gt;&lt;div&gt;&lt;span style=&quot;font-size: 12.3429px; text-align: left; white-space: pre; background-color: light-dark(#ffffff, var(--ge-dark-color, #121212)); color: rgb(248, 248, 242);&quot;&gt;&lt;font face=&quot;Helvetica&quot; style=&quot;color: rgb(0, 0, 0);&quot;&gt;приветствие&lt;/font&gt;&lt;/span&gt;&lt;/div&gt;" style="shape=parallelogram;perimeter=parallelogramPerimeter;whiteSpace=wrap;html=1;fixedSize=1;" vertex="1" parent="WIyWlLk6GJQsqaUBKTNV-1">
          <mxGeometry x="-20" y="550" width="120" height="60" as="geometry" />
        </mxCell>
        <mxCell id="EWCVs1CCw9TfIOl8WnOv-12" style="edgeStyle=orthogonalEdgeStyle;rounded=0;orthogonalLoop=1;jettySize=auto;html=1;exitX=0;exitY=0.5;exitDx=0;exitDy=0;entryX=0.5;entryY=0;entryDx=0;entryDy=0;" edge="1" parent="WIyWlLk6GJQsqaUBKTNV-1" source="EWCVs1CCw9TfIOl8WnOv-5" target="EWCVs1CCw9TfIOl8WnOv-3">
          <mxGeometry relative="1" as="geometry" />
        </mxCell>
        <mxCell id="EWCVs1CCw9TfIOl8WnOv-5" value="&lt;span style=&quot;font-size: 12.3429px; text-align: left; white-space: pre;&quot;&gt;&lt;font face=&quot;Helvetica&quot; style=&quot;color: rgb(0, 0, 0);&quot;&gt;IsPremium == false?&lt;/font&gt;&lt;/span&gt;" style="rhombus;whiteSpace=wrap;html=1;" vertex="1" parent="WIyWlLk6GJQsqaUBKTNV-1">
          <mxGeometry x="176" y="435" width="136" height="80" as="geometry" />
        </mxCell>
        <mxCell id="EWCVs1CCw9TfIOl8WnOv-27" style="edgeStyle=orthogonalEdgeStyle;rounded=0;orthogonalLoop=1;jettySize=auto;html=1;exitX=0.5;exitY=1;exitDx=0;exitDy=0;" edge="1" parent="WIyWlLk6GJQsqaUBKTNV-1" source="EWCVs1CCw9TfIOl8WnOv-13">
          <mxGeometry relative="1" as="geometry">
            <mxPoint x="260" y="800" as="targetPoint" />
            <Array as="points">
              <mxPoint x="40" y="750" />
              <mxPoint x="261" y="750" />
            </Array>
          </mxGeometry>
        </mxCell>
        <mxCell id="EWCVs1CCw9TfIOl8WnOv-13" value="&lt;div style=&quot;text-align: left;&quot;&gt;&lt;span style=&quot;color: light-dark(rgb(0, 0, 0), rgb(255, 255, 255)); font-size: 12.3429px; white-space: pre; background-color: rgb(255, 255, 255);&quot;&gt;Вызвать &lt;/span&gt;&lt;/div&gt;&lt;div style=&quot;text-align: left;&quot;&gt;&lt;span style=&quot;color: light-dark(rgb(0, 0, 0), rgb(255, 255, 255)); font-size: 12.3429px; white-space: pre; background-color: rgb(255, 255, 255);&quot;&gt;ShowAds()&lt;/span&gt;&lt;/div&gt;" style="shape=parallelogram;perimeter=parallelogramPerimeter;whiteSpace=wrap;html=1;fixedSize=1;" vertex="1" parent="WIyWlLk6GJQsqaUBKTNV-1">
          <mxGeometry x="-20" y="655" width="120" height="60" as="geometry" />
        </mxCell>
        <mxCell id="EWCVs1CCw9TfIOl8WnOv-26" style="edgeStyle=orthogonalEdgeStyle;rounded=0;orthogonalLoop=1;jettySize=auto;html=1;exitX=0.5;exitY=1;exitDx=0;exitDy=0;entryX=0.5;entryY=0;entryDx=0;entryDy=0;" edge="1" parent="WIyWlLk6GJQsqaUBKTNV-1" source="EWCVs1CCw9TfIOl8WnOv-15" target="EWCVs1CCw9TfIOl8WnOv-17">
          <mxGeometry relative="1" as="geometry" />
        </mxCell>
        <mxCell id="EWCVs1CCw9TfIOl8WnOv-15" value="&lt;span style=&quot;font-size: 12.3429px; text-align: left; white-space: pre; background-color: light-dark(#ffffff, var(--ge-dark-color, #121212));&quot;&gt;&lt;font face=&quot;Helvetica&quot; style=&quot;color: rgb(0, 0, 0);&quot;&gt;Вывести &lt;/font&gt;&lt;/span&gt;&lt;div&gt;&lt;span style=&quot;font-size: 12.3429px; text-align: left; white-space: pre; background-color: light-dark(#ffffff, var(--ge-dark-color, #121212)); color: rgb(248, 248, 242);&quot;&gt;&lt;font face=&quot;Helvetica&quot; style=&quot;color: rgb(0, 0, 0);&quot;&gt;приветствие&lt;/font&gt;&lt;/span&gt;&lt;/div&gt;" style="shape=parallelogram;perimeter=parallelogramPerimeter;whiteSpace=wrap;html=1;fixedSize=1;" vertex="1" parent="WIyWlLk6GJQsqaUBKTNV-1">
          <mxGeometry x="400" y="540" width="120" height="60" as="geometry" />
        </mxCell>
        <mxCell id="EWCVs1CCw9TfIOl8WnOv-17" value="Конец" style="ellipse;whiteSpace=wrap;html=1;" vertex="1" parent="WIyWlLk6GJQsqaUBKTNV-1">
          <mxGeometry x="200" y="800" width="120" height="80" as="geometry" />
        </mxCell>
        <mxCell id="EWCVs1CCw9TfIOl8WnOv-23" style="edgeStyle=orthogonalEdgeStyle;rounded=0;orthogonalLoop=1;jettySize=auto;html=1;exitX=1;exitY=0.5;exitDx=0;exitDy=0;" edge="1" parent="WIyWlLk6GJQsqaUBKTNV-1" source="EWCVs1CCw9TfIOl8WnOv-21" target="EWCVs1CCw9TfIOl8WnOv-17">
          <mxGeometry relative="1" as="geometry">
            <Array as="points">
              <mxPoint x="750" y="370" />
              <mxPoint x="750" y="750" />
              <mxPoint x="260" y="750" />
            </Array>
          </mxGeometry>
        </mxCell>
        <mxCell id="EWCVs1CCw9TfIOl8WnOv-28" style="edgeStyle=orthogonalEdgeStyle;rounded=0;orthogonalLoop=1;jettySize=auto;html=1;exitX=0;exitY=0.5;exitDx=0;exitDy=0;entryX=0.5;entryY=0;entryDx=0;entryDy=0;" edge="1" parent="WIyWlLk6GJQsqaUBKTNV-1" source="EWCVs1CCw9TfIOl8WnOv-21" target="EWCVs1CCw9TfIOl8WnOv-5">
          <mxGeometry relative="1" as="geometry" />
        </mxCell>
        <mxCell id="EWCVs1CCw9TfIOl8WnOv-21" value="&lt;span style=&quot;font-size: 12.3429px; text-align: left; white-space: pre;&quot;&gt;&lt;font face=&quot;Helvetica&quot; style=&quot;color: rgb(0, 0, 0);&quot;&gt;Для каждого &lt;/font&gt;&lt;/span&gt;&lt;div&gt;&lt;span style=&quot;font-size: 12.3429px; text-align: left; white-space: pre;&quot;&gt;&lt;font face=&quot;Helvetica&quot; style=&quot;color: rgb(0, 0, 0);&quot;&gt;пользователя &lt;/font&gt;&lt;/span&gt;&lt;/div&gt;&lt;div&gt;&lt;span style=&quot;font-size: 12.3429px; text-align: left; white-space: pre;&quot;&gt;&lt;font face=&quot;Helvetica&quot; style=&quot;color: rgb(0, 0, 0);&quot;&gt;в списке?&lt;/font&gt;&lt;/span&gt;&lt;/div&gt;" style="rhombus;whiteSpace=wrap;html=1;" vertex="1" parent="WIyWlLk6GJQsqaUBKTNV-1">
          <mxGeometry x="346" y="330" width="136" height="80" as="geometry" />
        </mxCell>
        <mxCell id="EWCVs1CCw9TfIOl8WnOv-22" style="edgeStyle=orthogonalEdgeStyle;rounded=0;orthogonalLoop=1;jettySize=auto;html=1;exitX=0.5;exitY=1;exitDx=0;exitDy=0;entryX=0.5;entryY=0;entryDx=0;entryDy=0;" edge="1" parent="WIyWlLk6GJQsqaUBKTNV-1" source="EWCVs1CCw9TfIOl8WnOv-1" target="EWCVs1CCw9TfIOl8WnOv-21">
          <mxGeometry relative="1" as="geometry" />
        </mxCell>
        <mxCell id="EWCVs1CCw9TfIOl8WnOv-24" style="edgeStyle=orthogonalEdgeStyle;rounded=0;orthogonalLoop=1;jettySize=auto;html=1;exitX=1;exitY=0.5;exitDx=0;exitDy=0;entryX=0.558;entryY=-0.05;entryDx=0;entryDy=0;entryPerimeter=0;" edge="1" parent="WIyWlLk6GJQsqaUBKTNV-1" source="EWCVs1CCw9TfIOl8WnOv-5" target="EWCVs1CCw9TfIOl8WnOv-15">
          <mxGeometry relative="1" as="geometry" />
        </mxCell>
      </root>
    </mxGraphModel>
  </diagram>
</mxfile>
